# xmcd
#
# Track frame offsets: 
#        150
#        16488
#        33910
#        51245
#        77058
#        101343
#        115082
#        127398
#        143106
#        160763
#        184697
#        206026
#
# Disc length: 2949 seconds
#
# Revision: 0
# Processed by: cddbd v1.5.2PL0 Copyright (c) Steve Scherf et al.
# Submitted via: ExactAudioCopy v0.99pb5
#
DISCID=a10b830c
DTITLE=Cyndi Lauper - Memphis Blues
DYEAR=2010
DGENRE=Blues
TTITLE0=Just Your Fool (Feat. Charlie Musselwhite)
TTITLE1=Shattered Dreams (Feat. Allen Toussaint)
TTITLE2=Early In The Mornin' (Feat. Allen Toussaint and B.B. King)
TTITLE3=Romance In The Dark
TTITLE4=How Blue Can You Get? (Feat. Jonny Lang)
TTITLE5=Down Don't Bother Me (Feat. Charlie Musselwhite)
TTITLE6=Don't Cry No More
TTITLE7=Rollin' and Tumblin' (Feat. Ann Peebles)
TTITLE8=Down So Low
TTITLE9=Mother Earth (Feta. Allen Toussaint)
TTITLE10=Crossroads (Feat. Jonny Lang)
TTITLE11=Wild Women Don't Have The Blues
EXTD=
EXTT0=
EXTT1=
EXTT2=
EXTT3=
EXTT4=
EXTT5=
EXTT6=
EXTT7=
EXTT8=
EXTT9=
EXTT10=
EXTT11=
PLAYORDER=
